<mxfile host="app.diagrams.net" modified="2023-05-10T09:13:46.273Z" agent="5.0 (Windows NT 10.0; Win64; x64) AppleWebKit/537.36 (KHTML, like Gecko) Chrome/112.0.0.0 Safari/537.36 Edg/112.0.1722.39" etag="I-OyBVBsh3Qqc_L8rTc-" version="21.0.8" type="github">
  <diagram name="第 1 页" id="EfqjYttcvS8oDA8_xJTJ">
    <mxGraphModel dx="787" dy="455" grid="1" gridSize="10" guides="1" tooltips="1" connect="1" arrows="1" fold="1" page="1" pageScale="1" pageWidth="827" pageHeight="1169" math="1" shadow="0">
      <root>
        <mxCell id="0" />
        <mxCell id="1" parent="0" />
        <mxCell id="bshVfnCMTyR56m4B5xwz-1" value="&lt;font style=&quot;font-size: 18px;&quot;&gt;$$\{(x_n,y_n)\}^N_{n=1}$$&lt;/font&gt;" style="text;html=1;strokeColor=none;fillColor=none;align=center;verticalAlign=middle;whiteSpace=wrap;rounded=0;" vertex="1" parent="1">
          <mxGeometry x="230" y="260" width="60" height="30" as="geometry" />
        </mxCell>
        <mxCell id="bshVfnCMTyR56m4B5xwz-2" value="" style="group" vertex="1" connectable="0" parent="1">
          <mxGeometry x="105" y="645" width="180" height="90" as="geometry" />
        </mxCell>
        <mxCell id="bshVfnCMTyR56m4B5xwz-3" value="" style="rounded=1;whiteSpace=wrap;html=1;fillColor=#d5e8d4;strokeColor=#82b366;" vertex="1" parent="bshVfnCMTyR56m4B5xwz-2">
          <mxGeometry width="180" height="90" as="geometry" />
        </mxCell>
        <mxCell id="bshVfnCMTyR56m4B5xwz-4" value="&lt;font face=&quot;Times New Roman&quot; style=&quot;font-size: 22px;&quot;&gt;Classify via (&lt;font color=&quot;#ff3333&quot;&gt;5&lt;/font&gt;)&lt;br&gt;&lt;/font&gt;" style="text;html=1;strokeColor=none;fillColor=none;align=center;verticalAlign=middle;whiteSpace=wrap;rounded=0;" vertex="1" parent="bshVfnCMTyR56m4B5xwz-2">
          <mxGeometry x="6" y="7.9411764705882355" width="168" height="74.11764705882354" as="geometry" />
        </mxCell>
        <mxCell id="bshVfnCMTyR56m4B5xwz-6" value="" style="group" vertex="1" connectable="0" parent="1">
          <mxGeometry x="130" y="180" width="120" height="60" as="geometry" />
        </mxCell>
        <mxCell id="bshVfnCMTyR56m4B5xwz-7" value="" style="rounded=1;whiteSpace=wrap;html=1;fillColor=#f8cecc;strokeColor=#b85450;" vertex="1" parent="bshVfnCMTyR56m4B5xwz-6">
          <mxGeometry width="120" height="60" as="geometry" />
        </mxCell>
        <mxCell id="bshVfnCMTyR56m4B5xwz-8" value="&lt;font face=&quot;Times New Roman&quot; style=&quot;font-size: 22px;&quot;&gt;Training&lt;br&gt;sample&lt;/font&gt;" style="text;html=1;strokeColor=none;fillColor=none;align=center;verticalAlign=middle;whiteSpace=wrap;rounded=0;" vertex="1" parent="bshVfnCMTyR56m4B5xwz-6">
          <mxGeometry x="30" y="15" width="60" height="30" as="geometry" />
        </mxCell>
        <mxCell id="bshVfnCMTyR56m4B5xwz-9" value="" style="endArrow=none;dashed=1;html=1;rounded=0;startArrow=block;startFill=1;entryX=0.5;entryY=1;entryDx=0;entryDy=0;exitX=0.5;exitY=0;exitDx=0;exitDy=0;" edge="1" parent="1" source="bshVfnCMTyR56m4B5xwz-11" target="bshVfnCMTyR56m4B5xwz-7">
          <mxGeometry width="50" height="50" relative="1" as="geometry">
            <mxPoint x="190" y="320" as="sourcePoint" />
            <mxPoint x="280" y="370" as="targetPoint" />
          </mxGeometry>
        </mxCell>
        <mxCell id="bshVfnCMTyR56m4B5xwz-10" value="" style="group" vertex="1" connectable="0" parent="1">
          <mxGeometry x="120" y="310" width="140" height="90" as="geometry" />
        </mxCell>
        <mxCell id="bshVfnCMTyR56m4B5xwz-11" value="" style="rounded=1;whiteSpace=wrap;html=1;fillColor=#ccccff;strokeColor=#9673a6;" vertex="1" parent="bshVfnCMTyR56m4B5xwz-10">
          <mxGeometry width="140" height="90" as="geometry" />
        </mxCell>
        <mxCell id="bshVfnCMTyR56m4B5xwz-12" value="&lt;font face=&quot;Times New Roman&quot; style=&quot;font-size: 22px;&quot;&gt;&lt;font style=&quot;font-size: 22px;&quot;&gt;Minimise&lt;br&gt;&lt;/font&gt;CSS loss&amp;nbsp;&lt;br&gt;with&amp;nbsp; &amp;nbsp; &amp;nbsp; &amp;nbsp; &amp;nbsp; &amp;nbsp;&amp;nbsp;&lt;br&gt;&lt;/font&gt;" style="text;html=1;strokeColor=none;fillColor=none;align=center;verticalAlign=middle;whiteSpace=wrap;rounded=0;" vertex="1" parent="bshVfnCMTyR56m4B5xwz-10">
          <mxGeometry y="10" width="140" height="70" as="geometry" />
        </mxCell>
        <mxCell id="bshVfnCMTyR56m4B5xwz-13" value="&lt;font face=&quot;Times New Roman&quot;&gt;&lt;span style=&quot;font-size: 22px;&quot;&gt;$$c_0=0$$&lt;/span&gt;&lt;/font&gt;" style="text;html=1;strokeColor=none;fillColor=none;align=center;verticalAlign=middle;whiteSpace=wrap;rounded=0;" vertex="1" parent="bshVfnCMTyR56m4B5xwz-10">
          <mxGeometry x="60" y="50" width="60" height="40" as="geometry" />
        </mxCell>
        <mxCell id="bshVfnCMTyR56m4B5xwz-14" value="" style="endArrow=none;dashed=1;html=1;rounded=0;startArrow=block;startFill=1;entryX=0.5;entryY=1;entryDx=0;entryDy=0;exitX=0.5;exitY=0;exitDx=0;exitDy=0;" edge="1" parent="1" target="bshVfnCMTyR56m4B5xwz-11" source="bshVfnCMTyR56m4B5xwz-23">
          <mxGeometry width="50" height="50" relative="1" as="geometry">
            <mxPoint x="230" y="500" as="sourcePoint" />
            <mxPoint x="170" y="420" as="targetPoint" />
          </mxGeometry>
        </mxCell>
        <mxCell id="bshVfnCMTyR56m4B5xwz-15" value="" style="endArrow=none;dashed=1;html=1;rounded=0;startArrow=block;startFill=1;entryX=0.5;entryY=1;entryDx=0;entryDy=0;exitX=0.5;exitY=0;exitDx=0;exitDy=0;" edge="1" parent="1" source="bshVfnCMTyR56m4B5xwz-3" target="bshVfnCMTyR56m4B5xwz-22">
          <mxGeometry width="50" height="50" relative="1" as="geometry">
            <mxPoint x="351" y="777.5" as="sourcePoint" />
            <mxPoint x="188" y="630" as="targetPoint" />
          </mxGeometry>
        </mxCell>
        <mxCell id="bshVfnCMTyR56m4B5xwz-17" value="&lt;font style=&quot;font-size: 18px;&quot;&gt;$$\bar f_1,\dots ,\bar f_L$$&lt;/font&gt;" style="text;html=1;strokeColor=none;fillColor=none;align=center;verticalAlign=middle;whiteSpace=wrap;rounded=0;" vertex="1" parent="1">
          <mxGeometry x="210" y="410" width="60" height="30" as="geometry" />
        </mxCell>
        <mxCell id="bshVfnCMTyR56m4B5xwz-19" value="&lt;font face=&quot;Times New Roman&quot; style=&quot;font-size: 19px;&quot;&gt;Logits&amp;nbsp;&lt;/font&gt;" style="text;html=1;strokeColor=none;fillColor=none;align=center;verticalAlign=middle;whiteSpace=wrap;rounded=0;" vertex="1" parent="1">
          <mxGeometry x="130" y="410" width="60" height="30" as="geometry" />
        </mxCell>
        <mxCell id="bshVfnCMTyR56m4B5xwz-20" value="&lt;font color=&quot;#3399ff&quot; face=&quot;Times New Roman&quot; style=&quot;font-size: 19px;&quot;&gt;(Frozen)&lt;/font&gt;" style="text;html=1;strokeColor=none;fillColor=none;align=center;verticalAlign=middle;whiteSpace=wrap;rounded=0;" vertex="1" parent="1">
          <mxGeometry x="198" y="440" width="60" height="30" as="geometry" />
        </mxCell>
        <mxCell id="bshVfnCMTyR56m4B5xwz-25" value="" style="group" vertex="1" connectable="0" parent="1">
          <mxGeometry x="90" y="480" width="210" height="90" as="geometry" />
        </mxCell>
        <mxCell id="bshVfnCMTyR56m4B5xwz-22" value="" style="rounded=1;whiteSpace=wrap;html=1;fillColor=#ccccff;strokeColor=#9673a6;" vertex="1" parent="bshVfnCMTyR56m4B5xwz-25">
          <mxGeometry width="210" height="80" as="geometry" />
        </mxCell>
        <mxCell id="bshVfnCMTyR56m4B5xwz-23" value="&lt;font face=&quot;Times New Roman&quot; style=&quot;font-size: 20px;&quot;&gt;&lt;font style=&quot;font-size: 20px;&quot;&gt;Minimise rejector &lt;br&gt;loss (&lt;font color=&quot;#ff0000&quot;&gt;4&lt;/font&gt;) for any&amp;nbsp;&amp;nbsp;&lt;/font&gt;&amp;nbsp; &amp;nbsp; &amp;nbsp;&amp;nbsp;&lt;br&gt;&lt;/font&gt;" style="text;html=1;strokeColor=none;fillColor=none;align=center;verticalAlign=middle;whiteSpace=wrap;rounded=0;" vertex="1" parent="bshVfnCMTyR56m4B5xwz-25">
          <mxGeometry width="200.45454545454547" height="70" as="geometry" />
        </mxCell>
        <mxCell id="bshVfnCMTyR56m4B5xwz-24" value="&lt;font style=&quot;font-size: 20px;&quot; face=&quot;Times New Roman&quot;&gt;$$c_0$$&lt;/font&gt;" style="text;html=1;strokeColor=none;fillColor=none;align=center;verticalAlign=middle;whiteSpace=wrap;rounded=0;" vertex="1" parent="bshVfnCMTyR56m4B5xwz-25">
          <mxGeometry x="140" y="40" width="36.82" height="20" as="geometry" />
        </mxCell>
        <mxCell id="bshVfnCMTyR56m4B5xwz-26" value="&lt;font style=&quot;font-size: 18px;&quot;&gt;$$\bar f_{\perp}$$&lt;/font&gt;" style="text;html=1;strokeColor=none;fillColor=none;align=center;verticalAlign=middle;whiteSpace=wrap;rounded=0;" vertex="1" parent="1">
          <mxGeometry x="190" y="585" width="60" height="30" as="geometry" />
        </mxCell>
        <mxCell id="bshVfnCMTyR56m4B5xwz-27" value="&lt;font face=&quot;Times New Roman&quot; style=&quot;font-size: 19px;&quot;&gt;Defer logit&lt;/font&gt;" style="text;html=1;strokeColor=none;fillColor=none;align=center;verticalAlign=middle;whiteSpace=wrap;rounded=0;" vertex="1" parent="1">
          <mxGeometry x="98" y="585" width="92" height="30" as="geometry" />
        </mxCell>
      </root>
    </mxGraphModel>
  </diagram>
</mxfile>
